# AST/ASF file generated using VICON BodyLanguage
# -----------------------------------------------
:version 1.10
:name VICON
:units
  mass 1.0
  length 0.45
  angle deg
:documentation
   .ast/.asf automatically generated from VICON data using
   VICON BodyBuilder and BodyLanguage model FoxedUp or BRILLIANT.MOD
:root
   order TX TY TZ RX RY RZ
   axis XYZ
   position 0 0 0  
   orientation 0 0 0 
:bonedata
  begin
     id 1 
     name lhipjoint
     direction 0.682418 -0.694059 0.22932 
     length 2.25561 
     axis 0 0 0  XYZ
  end
  begin
     id 2 
     name lfemur
     direction 0.34202 -0.939693 0  
     length 6.96448  
     axis 0 0 20  XYZ
    dof rx ry rz
    limits (-160.0 20.0)
           (-70.0 70.0)
           (-60.0 70.0)
  end
  begin
     id 3 
     name ltibia
     direction 0.34202 -0.939693 0   
     length 6.88553   
     axis 0 0 20   XYZ
    dof rx
    limits (-10.0 170.0)
  end
  begin
     id 4 
     name lfoot
     direction 0.0723587 -0.198804 0.977364   
     length 1.88518   
     axis -90 7.62852e-016 20   XYZ
    dof rx rz
    limits (-45.0 90.0)
           (-70.0 20.0)
  end
  begin
     id 5 
     name ltoes
     direction 1.53558e-011 -4.21962e-011 1   
     length 0.952124   
     axis -90 7.62852e-016 20   XYZ
    dof rx
    limits (-90.0 20.0)
  end
  begin
     id 6 
     name rhipjoint
     direction -0.657603 -0.71533 0.236348   
     length 2.18854  
     axis 0 0 0  XYZ 
  end
  begin
     id 7 
     name rfemur
     direction -0.34202 -0.939693 0   
     length 6.86686   
     axis 0 0 -20   XYZ
    dof rx ry rz
    limits (-160.0 20.0)
           (-70.0 70.0)
           (-70.0 60.0)
  end
  begin
     id 8 
     name rtibia
     direction -0.34202 -0.939693 0   
     length 6.59503   
     axis 0 0 -20   XYZ
    dof rx
    limits (-10.0 170.0)
 end
 begin
     id 9 
     name rfoot
     direction -0.101977 -0.280179 0.954516   
     length 1.93723  
     axis -90 -7.62852e-016 -20   XYZ
    dof rx rz
    limits (-45.0 90.0)
           (-20.0 70.0)
  end
  begin
     id 10 
     name rtoes
     direction -1.53564e-011 -4.21897e-011 1   
     length 0.970315   
     axis -90 -7.62852e-016 -20   XYZ
    dof rx
    limits (-90.0 20.0)
  end
  begin
     id 11 
     name lowerback
     direction -0.0339559 0.999421 -0.00235966   
     length 1.88543   
     axis 0 0 0   XYZ
    dof rx ry rz
    limits (-20.0 45.0)
           (-30.0 30.0)
           (-30.0 30.0)
  end
  begin
     id 12 
     name upperback
     direction 0.00401003 0.999739 0.0224689   
     length 1.8856   
     axis 0 0 0   XYZ
    dof rx ry rz
    limits (-20.0 45.0)
           (-30.0 30.0)
           (-30.0 30.0)
  end
  begin
     id 13 
     name thorax
     direction 0.0198619 0.999546 0.0226536   
     length 1.88352   
     axis 0 0 0   XYZ
    dof rx ry rz
    limits (-20.0 45.0)
           (-30.0 30.0)
           (-30.0 30.0)
  end
  begin
     id 14 
     name lowerneck
     direction -0.0461848 0.998632 0.0245198   
     length 1.34895   
     axis 0 0 0   XYZ
    dof rx ry rz
    limits (-20.0 45.0)
           (-30.0 30.0)
           (-30.0 30.0)
  end
  begin
     id 15 
     name upperneck
     direction -0.0180627 0.994724 -0.100984   
     length 1.35214   
     axis 0 0 0   XYZ
    dof rx ry rz
    limits (-20.0 45.0)
           (-30.0 30.0)
           (-30.0 30.0)
  end
  begin
     id 16
     name head
     direction -0.00374772 0.999293 -0.037403  
     length 1.3568  
     axis 0 0 0   XYZ
    dof rx ry rz
    limits (-20.0 45.0)
           (-30.0 30.0)
           (-30.0 30.0)
  end
  begin
     id 17 
     name lclavicle
     direction 0.971773 0.191119 0.138311  
     length 2.84954  
     axis 0 0 0   XYZ
    dof ry rz
    limits (-20.0 10.0)
           (0.0 20.0)
  end
  begin
     id 18 
     name lhumerus
     direction 1 -4.4897e-011 -2.43761e-027   
     length 4.40919   
     axis 180 -30 -90   XYZ
    dof rx ry rz
    limits (-60.0 90.0)
           (-90.0 90.0)
           (-90.0 90.0)
  end
  begin
     id 19
     name lradius
     direction 1 -4.4896e-011 -9.1621e-027   
     length 3.03857   
     axis 180 -30 -90   XYZ
    dof rx
    limits (-10.0 170.0)
  end
  begin
     id 20
     name lwrist
     direction 1 -4.4896e-011 -1.41363e-026   
     length 1.51928   
     axis 1.07133e-014 90 90   XYZ
    dof ry
    limits (-180.0 0.0)
 end
  begin
     id 21 
     name lhand
     direction 1 -4.48978e-011 -2.82725e-026   
     length 0.523208   
     axis 1.80403e-014 90 90   XYZ
    dof rx rz
    limits (-90.0 90.0)
           (-45.0 45.0)
  end
  begin
     id 22 
     name lfingers
     direction 1 -4.48977e-011 -5.6545e-026   
     length 0.421824   
     axis 3.60806e-014 90 90   XYZ
    dof rx
    limits (0.0 90.0)
  end
  begin
     id 23
     name lthumb
     direction 0.707107 -6.34962e-011 0.707107   
     length 0.605657   
     axis -90 45 2.85299e-015   XYZ
    dof rx rz
    limits (-45.0 45.0)
           (-45.0 45.0)
  end
  begin
     id 24 
     name rclavicle
     direction -0.957247 0.24311 0.156766   
     length 3.12406  
     axis 0 0 0   XYZ 
    dof ry rz
    limits (-10.0 20.0)
           (-20.0 0.0)
  end
  begin
     id 25 
     name rhumerus
     direction -1 -4.48964e-011 -1.70632e-027  
     length 4.61969   
     axis 180 30 90   XYZ
    dof rx ry rz
    limits (-90.0 60.0)
           (-90.0 90.0)
           (-90.0 90.0)
  end
  begin
     id 26 
     name rradius
     direction -1 -4.48966e-011 -6.60395e-027   
     length 3.09382   
     axis 180 30 90   XYZ
    dof rx
    limits (-10.0 170.0)
  end
  begin
     id 27 
     name rwrist
     direction -1 -4.48963e-011 -1.41363e-026   
     length 1.54691   
     axis 1.07133e-014 -90 -90   XYZ
    dof ry
    limits (-180.0 0.0)
  end
  begin
     id 28
     name rhand
     direction -1 -4.49013e-011 -2.82725e-026   
     length 0.500896   
     axis 1.80403e-014 -90 -90   XYZ
    dof rx rz
    limits (-90.0 90.0)
           (-45.0 45.0)
  end
  begin
     id 29
     name rfingers
     direction -1 -4.48902e-011 -5.6545e-026   
     length 0.403835   
     axis 3.60806e-014 -90 -90   XYZ
    dof rx
    limits (0.0 90.0)
  end
  begin
     id 30
     name rthumb
     direction -0.707107 -6.34953e-011 0.707107   
     length 0.579829   
     axis -90 -45 -2.85299e-015   XYZ
    dof rx rz
    limits (-45.0 45.0)
           (-45.0 45.0)
  end
:hierarchy
  begin
    root lhipjoint rhipjoint lowerback
    lhipjoint lfemur
    lfemur ltibia
    ltibia lfoot
    lfoot ltoes
    rhipjoint rfemur
    rfemur rtibia
    rtibia rfoot
    rfoot rtoes
    lowerback upperback
    upperback thorax
    thorax lowerneck lclavicle rclavicle
    lowerneck upperneck
    upperneck head
    lclavicle lhumerus
    lhumerus lradius
    lradius lwrist
    lwrist lhand lthumb
    lhand lfingers
    rclavicle rhumerus
    rhumerus rradius
    rradius rwrist
    rwrist rhand rthumb
    rhand rfingers
  end

#!OML:ASF E:\madness\Project 1\Capture day 1\Session 1\Female1.ASF
:FULLY-SPECIFIED
:DEGREES
1092
root 28.7033 15.496 -3.80313 -166.963 -62.0131 192.996
lowerback 14.5092 -0.336564 -8.94454
upperback 4.17833 -1.80129 6.21735
thorax -3.16979 -1.06526 12.2561
lowerneck -3.00101 -2.4289 -0.625967
upperneck -21.4733 -3.56159 6.60848
head -5.85275 -2.74507 2.41071
rclavicle 4.77083e-015 -4.49253e-014
rhumerus -71.5593 -19.3801 -16.076
rradius 113.577
rwrist -18.3068
rhand -25.4997 -34.8188
rfingers 7.12502
rthumb 1.02897 -64.7961
lclavicle 4.77083e-015 -4.49253e-014
lhumerus -47.4157 -10.4205 14.9054
lradius 111.397
lwrist 4.03977
lhand -46.7544 10.4679
lfingers 7.12502
lthumb -19.4711 39.513
rfemur -24.515 13.4847 16.4219
rtibia 25.4245
rfoot -26.902 -8.12855
rtoes -5.74995
lfemur -57.6036 -4.42822 10.0813
ltibia 40.4436
lfoot -12.8612 8.13011
ltoes -14.3166
1093
root 28.6473 15.4597 -3.74528 -166.022 -60.6389 192.995
lowerback 14.3963 -0.64962 -9.44858
upperback 4.2901 -2.29045 6.38512
thorax -2.81871 -1.34901 12.8244
lowerneck -2.7607 -2.08304 -1.08319
upperneck -21.6357 -3.0723 6.9064
head -5.94711 -2.51625 2.5766
rclavicle -2.10712e-014 -4.37326e-015
rhumerus -70.8326 -19.6921 -18.1898
rradius 113.615
rwrist -17.9149
rhand -25.698 -35.9015
rfingers 7.12502
rthumb 0.837459 -65.8796
lclavicle -2.10712e-014 -4.37326e-015
lhumerus -45.3794 -9.64744 12.4829
lradius 110.454
lwrist 4.08977
lhand -45.9667 10.0301
lfingers 7.12502
lthumb -18.7136 39.15
rfemur -25.6441 13.8852 15.7022
rtibia 25.2835
rfoot -26.6325 -7.64179
rtoes -7.6209
lfemur -57.6638 -4.5005 10.9575
ltibia 38.5605
lfoot -12.4986 7.88501
ltoes -8.15914
1094
root 28.5465 15.4414 -3.685 -165.92 -59.1646 193.182
lowerback 14.4304 -0.712381 -9.39964
upperback 4.49921 -2.39136 6.25261
thorax -2.59246 -1.43234 12.648
lowerneck -2.51278 -1.799 -0.862922
upperneck -21.1572 -2.61009 7.13139
head -5.85488 -2.30142 2.5841
rclavicle -4.77083e-014 3.73715e-014
rhumerus -71.3142 -20.0002 -20.0022
rradius 113.833
rwrist -17.5485
rhand -25.567 -35.2049
rfingers 7.12502
rthumb 0.963915 -65.1824
lclavicle -4.77083e-014 3.73715e-014
lhumerus -42.0492 -9.11648 10.1089
lradius 109.222
lwrist 3.99774
lhand -45.5873 9.53821
lfingers 7.12502
lthumb -18.3487 38.6928
rfemur -25.8973 14.1462 15.2188
rtibia 25.1695
rfoot -26.584 -6.84553
rtoes -9.56844
lfemur -56.9281 -5.05542 11.716
ltibia 36.9899
lfoot -11.8085 9.04106
ltoes -7.5108
1095
root 28.4487 15.4143 -3.61526 -165.618 -57.6248 193.335
lowerback 14.2953 -0.713125 -9.23777
upperback 4.64795 -2.37455 5.99377
thorax -2.38684 -1.44429 12.2309
lowerneck -2.04537 -1.65207 -0.140248
upperneck -20.8419 -2.37872 6.94764
head -5.85942 -2.21334 2.39345
rclavicle 6.99722e-014 -1.15295e-014
rhumerus -72.0649 -20.553 -21.7576
rradius 114.041
rwrist -17.0822
rhand -25.3723 -35.1571
rfingers 7.12502
rthumb 1.15204 -65.1337
lclavicle 6.99722e-014 -1.15295e-014
lhumerus -38.1289 -8.477 7.73722
lradius 107.957
lwrist 3.92241
lhand -45.8549 9.04371
lfingers 7.12502
lthumb -18.6061 38.1739
rfemur -26.4701 14.3637 14.639
rtibia 25.1627
rfoot -26.5043 -6.10095
rtoes -12.3187
lfemur -56.3182 -5.37254 12.2098
ltibia 35.6683
lfoot -11.8683 9.2226
ltoes -9.03925
1096
root 28.3538 15.3798 -3.54426 -165.365 -55.9865 193.514
lowerback 14.1572 -0.888922 -9.29289
upperback 4.92976 -2.63198 5.89727
thorax -1.94014 -1.62748 12.1688
lowerneck -2.08119 -1.33631 -0.224624
upperneck -20.2741 -1.94076 6.95217
head -5.68826 -1.96798 2.37619
rclavicle 5.56597e-015 -3.18055e-015
rhumerus -71.587 -21.0828 -23.958
rradius 114.051
rwrist -16.3327
rhand -25.1776 -35.2605
rfingers 7.12502
rthumb 1.34007 -65.2361
lclavicle 5.56597e-015 -3.18055e-015
lhumerus -35.0796 -7.21529 5.88839
lradius 106.722
lwrist 3.48503
lhand -45.7095 9.00148
lfingers 7.12502
lthumb -18.4663 38.145
rfemur -26.9483 14.6573 14.0716
rtibia 24.9591
rfoot -26.2984 -5.49858
rtoes -15.606
lfemur -55.6148 -5.53306 12.4842
ltibia 34.6969
lfoot -11.5677 9.45514
ltoes -10.2365
1097
root 28.2538 15.3482 -3.4756 -165.422 -54.2605 193.829
lowerback 14.2106 -1.00977 -9.43425
upperback 5.14883 -2.84303 5.92878
thorax -1.66402 -1.77789 12.3145
lowerneck -2.24639 -0.987308 -0.626856
upperneck -19.2726 -1.45468 6.92474
head -5.35896 -1.64284 2.38914
rclavicle -5.80451e-014 -5.64548e-014
rhumerus -70.9215 -21.2236 -26.0137
rradius 114.077
rwrist -15.7339
rhand -25.487 -35.3068
rfingers 7.12502
rthumb 1.04122 -65.284
lclavicle -5.80451e-014 -5.64548e-014
lhumerus -31.9243 -6.00168 4.62275
lradius 105.263
lwrist 2.78688
lhand -45.5305 9.72126
lfingers 7.12502
lthumb -18.294 38.881
rfemur -27.2168 15.1323 13.5962
rtibia 24.7637
rfoot -26.1706 -4.95138
rtoes -18.6575
lfemur -54.738 -6.10136 13.136
ltibia 34.1759
lfoot -11.7335 8.88261
ltoes -5.61026
1098
root 28.1478 15.3217 -3.40648 -165.665 -52.3765 194.235
lowerback 14.3265 -0.954031 -9.57335
upperback 5.27854 -2.81914 5.9313
thorax -1.58499 -1.78939 12.402
lowerneck -2.37801 -0.664778 -0.707892
upperneck -18.267 -0.996453 6.88899
head -5.04107 -1.3532 2.35092
rclavicle -3.73715e-014 3.26007e-014
rhumerus -70.6514 -21.3147 -27.7214
rradius 114.044
rwrist -15.3972
rhand -25.8572 -34.8623
rfingers 7.12502
rthumb 0.683694 -64.841
lclavicle -3.73715e-014 3.26007e-014
lhumerus -28.1256 -5.03704 3.57571
lradius 103.592
lwrist 2.1039
lhand -45.7372 9.88512
lfingers 7.12502
lthumb -18.4929 39.0261
rfemur -27.3219 15.9215 13.1288
rtibia 24.4102
rfoot -26.0026 -4.57741
rtoes -21.6407
lfemur -53.8501 -7.02607 14.1927
ltibia 34.4101
lfoot -8.903 8.60119
ltoes -18.8381
1099
root 28.0438 15.3002 -3.33506 -165.982 -50.6514 194.592
lowerback 14.6144 -0.908134 -9.70729
upperback 5.36561 -2.82015 5.90323
thorax -1.63979 -1.80066 12.4678
lowerneck -2.28303 -0.351363 -0.80195
upperneck -17.2434 -0.518502 7.00258
head -4.75769 -1.05923 2.36596
rclavicle 4.21423e-014 -1.29608e-013
rhumerus -70.4494 -21.5071 -29.3091
rradius 113.811
rwrist -14.8494
rhand -24.954 -33.536
rfingers 7.12502
rthumb 1.55599 -63.5101
lclavicle 4.21423e-014 -1.29608e-013
lhumerus -24.1656 -4.0919 2.78096
lradius 101.729
lwrist 1.30436
lhand -45.6444 9.20691
lfingers 7.12502
lthumb -18.4036 38.3563
rfemur -27.2645 16.8451 12.6348
rtibia 23.9693
rfoot -25.8786 -4.23191
rtoes -23.5052
lfemur -53.1946 -7.75092 14.8905
ltibia 35.5059
lfoot -10.3763 5.75129
ltoes -5.71392
1100
root 27.9345 15.2882 -3.26402 -166.261 -48.9206 195
lowerback 14.6696 -0.924117 -9.71467
upperback 5.41791 -2.86129 5.8375
thorax -1.6059 -1.83076 12.4035
lowerneck -2.0175 0.0307708 -1.18088
upperneck -16.1098 0.0759797 7.26517
head -4.4755 -0.690572 2.47281
rclavicle -3.18055e-014 1.74931e-014
rhumerus -70.1881 -21.5803 -31.2225
rradius 113.942
rwrist -14.4371
rhand -24.1912 -34.5615
rfingers 7.12502
rthumb 2.29269 -64.5289
lclavicle -3.18055e-014 1.74931e-014
lhumerus -19.9107 -3.22817 2.31681
lradius 99.6373
lwrist 0.339196
lhand -45.7993 8.71092
lfingers 7.12502
lthumb -18.5526 37.8462
rfemur -27.3174 17.8496 12.1125
rtibia 23.5936
rfoot -25.8839 -3.68621
rtoes -24.2519
lfemur -52.8845 -7.61568 14.8827
ltibia 37.3869
lfoot -13.0369 7.33359
ltoes -11.6034
1101
root 27.8231 15.2665 -3.18825 -166.455 -47.2123 195.153
lowerback 14.7943 -1.01248 -9.71869
upperback 5.50412 -3.00586 5.60773
thorax -1.5551 -1.91189 12.165
lowerneck -1.82114 0.33848 -1.60247
upperneck -14.9412 0.592772 8.00556
head -4.1725 -0.390644 2.7395
rclavicle 3.49861e-014 7.95139e-015
rhumerus -69.7909 -21.6767 -33.4244
rradius 113.973
rwrist -13.7998
rhand -23.8978 -36.9127
rfingers 7.12502
rthumb 2.5761 -66.8769
lclavicle 3.49861e-014 7.95139e-015
lhumerus -15.5595 -2.3649 1.95747
lradius 97.4524
lwrist -0.514676
lhand -45.9552 8.02248
lfingers 7.12502
lthumb -18.7026 37.1434
rfemur -27.3177 18.7491 11.4697
rtibia 23.3166
rfoot -25.9481 -3.25815
rtoes -25.5595
lfemur -52.8673 -6.99309 14.2759
ltibia 39.7542
lfoot -10.5773 12.2598
ltoes -9.34175
1102
root 27.7138 15.2263 -3.10852 -166.573 -45.4499 195.239
lowerback 15.0295 -1.10527 -9.84367
upperback 5.5651 -3.18104 5.28424
thorax -1.58171 -1.99974 11.9061
lowerneck -2.11473 0.968865 -2.14822
upperneck -13.2689 1.50328 8.76016
head -3.6673 0.139061 3.01675
rclavicle 1.02573e-013 -1.08139e-013
rhumerus -69.1798 -21.6809 -35.956
rradius 113.685
rwrist -13.5593
rhand -24.4161 -38.3953
rfingers 7.12502
rthumb 2.07554 -68.3649
lclavicle 1.02573e-013 -1.08139e-013
lhumerus -11.4344 -1.487 1.71925
lradius 95.1619
lwrist -1.19202
lhand -45.7063 7.60206
lfingers 7.12502
lthumb -18.4632 36.7458
rfemur -27.3973 19.6152 10.779
rtibia 23.0619
rfoot -26.0394 -2.83085
rtoes -27.1386
lfemur -53.0066 -5.93775 13.4655
ltibia 42.191
lfoot -9.45999 12.2664
ltoes 1.03324
1103
root 27.6033 15.1882 -3.02839 -166.416 -43.7832 195.295
lowerback 15.7006 -1.0551 -10.9345
upperback 5.05254 -3.3068 5.70616
thorax -2.351 -1.98932 13.1508
lowerneck -2.36685 1.32207 -2.33692
upperneck -10.8965 1.91015 8.34701
head -3.25529 0.50909 3.17495
rclavicle 9.54166e-015 -8.74653e-014
rhumerus -68.368 -20.5242 -37.3505
rradius 113.205
rwrist -14.0666
rhand -25.3291 -38.8065
rfingers 7.12502
rthumb 1.19375 -68.7829
lclavicle 9.54166e-015 -8.74653e-014
lhumerus -8.02953 -1.22767 2.88613
lradius 92.8318
lwrist -1.89404
lhand -45.4078 6.79153
lfingers 7.12502
lthumb -18.176 35.9623
rfemur -27.7911 20.4244 9.96561
rtibia 22.9024
rfoot -26.4266 -2.5229
rtoes -29.0166
lfemur -53.3936 -4.81244 12.7843
ltibia 44.3661
lfoot -11.8866 11.1096
ltoes -2.43197
